<svg width="118" height="62" fill="none" xmlns="http://www.w3.org/2000/svg"><path d="m.456 14.722-.021-3.318c.951-.126 1.48-.504 1.76-2.968l.516-4.774h6.636l.047 7.588h.84l.022 3.472H8.268L8.257 13H2.433l.01 1.722H.457Zm3.713-6.146c-.132 1.26-.532 2.128-1.117 2.674h4.34l-.036-5.838H4.514l-.345 3.164Zm8.034-3.066a1.08 1.08 0 0 1-1.071-1.064 1.053 1.053 0 0 1 1.057-1.05 1.06 1.06 0 0 1 1.07 1.05 1.055 1.055 0 0 1-1.056 1.064Zm.942 7.49h-1.778l-.042-6.762h1.778L13.145 13Zm4.228.168c-1.4 0-2.495-.434-3.157-1.078l.806-1.106c.633.532 1.53.77 2.342.77.91 0 1.399-.294 1.396-.728-.003-.518-.593-.756-1.517-.756h-1.386l-.008-1.372h1.386c.924 0 1.384-.252 1.381-.728-.002-.406-.564-.686-1.362-.686-.882 0-1.567.252-2.095.77l-.875-1.05c.654-.658 1.631-1.12 2.863-1.12 2.114-.014 3.309.7 3.316 1.848.005.868-.86 1.456-1.754 1.596.826.056 1.907.588 1.914 1.61.007 1.19-1.234 2.03-3.25 2.03ZM23.741 13h-1.778l-.042-6.762h1.778l.015 2.506h2.8L26.5 6.238h1.778L28.319 13H26.54l-.017-2.702h-2.8L23.741 13Zm12.18 0h-1.777l-.004-.7c-.459.546-1.255.868-2.137.868-1.078 0-2.357-.728-2.366-2.24-.01-1.582 1.26-2.184 2.338-2.184.896 0 1.696.294 2.148.826l-.006-.91c-.004-.686-.595-1.134-1.491-1.134-.728 0-1.398.266-1.97.798l-.678-1.19c.82-.728 1.883-1.064 2.947-1.064 1.54 0 2.958.616 2.97 2.562L35.922 13Zm-3.212-1.036c.574 0 1.133-.196 1.425-.588l-.005-.84c-.297-.392-.858-.588-1.432-.588-.7 0-1.272.364-1.268 1.022.004.63.58.994 1.28.994ZM40.724 13h-1.791l-.033-5.208h-1.89L37 6.238h5.572l.01 1.554h-1.89L40.723 13Zm4.714 0h-1.709l-.042-6.762h1.778l.026 4.088 2.76-4.088h1.792L50.084 13h-1.778l-.026-4.242L45.437 13Zm9.564.168c-2.086 0-3.593-1.47-3.606-3.556-.013-2.072 1.475-3.542 3.561-3.542 1.386 0 2.23.602 2.682 1.218L56.483 8.38c-.325-.476-.817-.728-1.433-.728-1.078 0-1.829.784-1.822 1.96.008 1.176.769 1.974 1.847 1.974.616 0 1.104-.28 1.423-.728l1.169 1.078c-.444.63-1.28 1.232-2.666 1.232ZM60.628 13h-2.016l1.553-2.45c-.772-.196-1.504-.896-1.511-2.1-.008-1.19.826-2.212 2.324-2.212h4.102L65.122 13h-1.778l-.015-2.324h-1.386L60.628 13Zm.648-3.808h2.044l-.009-1.456h-2.044c-.49 0-.81.294-.807.714.002.434.312.742.816.742Zm12.294 2.394c1.107 0 1.73-.91 1.724-2.002-.006-1.022-.642-1.932-1.748-1.932-1.106 0-1.716.91-1.71 1.932.007 1.092.629 2.002 1.734 2.002Zm.01 1.582c-2.254 0-3.58-1.666-3.594-3.864-.02-3.29 1.16-4.76 3.483-5.068 1.133-.168 1.524-.336 1.522-.574h1.848c.008 1.316-1.697 1.68-2.802 1.82-1.595.21-2.249.91-2.426 1.694.542-.714 1.365-1.106 2.303-1.106 1.932 0 3.203 1.652 3.214 3.528.012 1.904-1.294 3.57-3.548 3.57ZM79.36 5.51a1.08 1.08 0 0 1-1.07-1.064 1.053 1.053 0 0 1 1.057-1.05 1.06 1.06 0 0 1 1.07 1.05A1.056 1.056 0 0 1 79.36 5.51ZM80.3 13h-1.778l-.042-6.762h1.778L80.301 13Zm1.135.168-.01-1.456c.546 0 .865-.56 1.065-2.198l.413-3.276h5.474L88.42 13h-1.778l-.032-5.208h-2.142l-.212 1.932c-.265 2.338-1.099 3.444-2.82 3.444Zm8.707-6.93h1.778l.015 2.324h2.31c1.568 0 2.358 1.022 2.366 2.212.007 1.204-.826 2.226-2.338 2.226h-4.088l-.043-6.762Zm3.846 3.808h-2.044l.01 1.456h2.043c.504 0 .796-.308.794-.728-.003-.42-.299-.728-.803-.728Zm11.859-3.808h1.792l.042 6.762h-9.758l-.042-6.762h1.778l.032 5.208h2.212l-.032-5.208h1.778l.032 5.208h2.198l-.032-5.208Zm6.78 6.93c-2.058 0-3.62-1.386-3.634-3.556-.012-1.96 1.42-3.542 3.478-3.542 2.016 0 3.397 1.512 3.411 3.724l.003.392h-5.026c.117.854.807 1.568 1.955 1.568.574 0 1.371-.252 1.802-.672l.791 1.148c-.668.616-1.73.938-2.78.938Zm1.528-4.186c-.046-.644-.499-1.498-1.675-1.498-1.106 0-1.577.826-1.657 1.498h3.332Z" fill="#333"/><path d="M59.056 33.5v28m0 0 9-9m-9 9-9-9" stroke="#333" stroke-linecap="square" stroke-linejoin="bevel"/></svg>