<svg width="207" height="34" fill="none" xmlns="http://www.w3.org/2000/svg"><path d="M14.601 17.742v15.92h-3.684v-6.526H3.684v6.527H0v-15.92h3.684v6.277h7.233v-6.278H14.6ZM31.832 30.706v2.957H19.505v-15.92h12.032v2.956h-8.37v3.457h7.391v2.866h-7.391v3.684h8.665ZM35.9 17.742h3.685v12.919h7.983v3.002H35.901v-15.92ZM57.655 17.742c1.41 0 2.631.235 3.662.706 1.046.47 1.85 1.137 2.41 2 .562.865.842 1.889.842 3.071 0 1.168-.28 2.191-.841 3.07-.561.865-1.365 1.532-2.41 2.002-1.032.455-2.252.682-3.663.682H54.45v4.39h-3.685v-15.92h6.891Zm-.204 8.53c1.107 0 1.948-.236 2.524-.706.576-.485.864-1.167.864-2.047 0-.894-.288-1.577-.864-2.047-.576-.485-1.417-.728-2.524-.728h-3.002v5.527h3.002ZM68.337 17.742h7.233c1.728 0 3.252.334 4.57 1.001 1.335.652 2.366 1.577 3.094 2.775.743 1.198 1.114 2.593 1.114 4.185 0 1.592-.371 2.987-1.114 4.184-.728 1.198-1.759 2.13-3.093 2.798-1.32.652-2.843.978-4.572.978h-7.232v-15.92Zm7.05 12.896c1.593 0 2.859-.44 3.799-1.32.955-.894 1.432-2.1 1.432-3.615 0-1.517-.477-2.714-1.432-3.594-.94-.894-2.207-1.342-3.799-1.342h-3.365v9.871h3.365ZM100.591 30.706v2.957H88.264v-15.92h12.032v2.956h-8.37v3.457h7.392v2.866h-7.392v3.684h8.665ZM109.891 33.936c-1.259 0-2.479-.167-3.662-.5-1.167-.35-2.107-.797-2.82-1.343l1.251-2.774c.682.5 1.493.902 2.434 1.205.94.303 1.88.455 2.82.455 1.046 0 1.819-.151 2.32-.455.5-.318.75-.735.75-1.25 0-.38-.152-.69-.455-.933-.288-.258-.667-.463-1.137-.614a21.484 21.484 0 0 0-1.865-.5c-1.213-.289-2.206-.577-2.979-.865a4.924 4.924 0 0 1-2.002-1.387c-.546-.637-.819-1.486-.819-2.547 0-.925.251-1.76.751-2.502.5-.758 1.251-1.357 2.252-1.797 1.015-.44 2.251-.66 3.707-.66 1.016 0 2.009.122 2.979.364.971.243 1.82.592 2.547 1.047l-1.137 2.797c-1.47-.834-2.941-1.25-4.412-1.25-1.031 0-1.797.166-2.297.5-.485.333-.728.773-.728 1.319 0 .546.281.955.842 1.228.576.258 1.448.515 2.615.773 1.213.288 2.206.576 2.98.864a4.846 4.846 0 0 1 1.978 1.365c.561.622.842 1.463.842 2.524 0 .91-.258 1.744-.774 2.502-.5.743-1.258 1.335-2.274 1.774-1.016.44-2.251.66-3.707.66ZM126.1 27.408l-2.138 2.23v4.025h-3.661v-15.92h3.661v7.437l7.051-7.438h4.094l-6.596 7.096 6.982 8.825h-4.298l-5.095-6.255Z" fill="#fff"/><path d="M147.674 33.98c-1.289 0-2.54-.16-3.753-.478-1.212-.318-2.198-.743-2.956-1.273l1.478-3.32c.713.47 1.539.848 2.479 1.136a9.44 9.44 0 0 0 2.775.432c1.728 0 2.593-.432 2.593-1.296 0-.455-.251-.788-.751-1-.485-.228-1.274-.463-2.365-.706-1.198-.257-2.199-.53-3.002-.818a5.15 5.15 0 0 1-2.07-1.433c-.576-.652-.864-1.532-.864-2.639 0-.97.265-1.842.796-2.615.53-.788 1.319-1.41 2.365-1.865 1.061-.455 2.358-.682 3.889-.682 1.046 0 2.077.121 3.093.364 1.016.227 1.911.568 2.684 1.023l-1.387 3.343c-1.516-.818-2.987-1.228-4.413-1.228-.894 0-1.546.137-1.955.41-.41.257-.615.598-.615 1.023 0 .425.243.743.728.955.485.213 1.266.432 2.343.66 1.213.258 2.214.538 3.002.841a4.959 4.959 0 0 1 2.07 1.41c.591.637.887 1.51.887 2.616 0 .955-.266 1.82-.796 2.593-.531.773-1.327 1.395-2.388 1.865-1.062.454-2.351.682-3.867.682ZM161.109 21.312h-4.89v-3.57h14.26v3.57h-4.867v12.35h-4.503v-12.35ZM183.161 30.569h-6.732l-1.251 3.093h-4.594l7.028-15.92h4.434l7.051 15.92h-4.685l-1.251-3.093Zm-1.319-3.321-2.047-5.095-2.047 5.095h4.094ZM198.47 29.431h-2.456v4.23h-4.503v-15.92h7.278c1.44 0 2.691.243 3.752.728 1.062.47 1.881 1.152 2.457 2.047.576.88.864 1.918.864 3.116 0 1.152-.273 2.16-.819 3.025-.531.849-1.296 1.516-2.297 2.001l3.434 5.004h-4.821l-2.889-4.23Zm2.843-5.8c0-.742-.235-1.318-.705-1.728-.47-.41-1.167-.614-2.092-.614h-2.502v4.662h2.502c.925 0 1.622-.197 2.092-.59.47-.41.705-.986.705-1.73ZM106.365 9.154c0 1.442-1.155 2.615-2.574 2.615 1.419 0 2.574 1.173 2.574 2.615 0-1.442 1.155-2.615 2.574-2.615-1.419.008-2.574-1.165-2.574-2.615ZM120.094 10.461c-2.131 0-3.862-1.753-3.862-3.923 0 2.164-1.725 3.923-3.861 3.923 2.131 0 3.861 1.753 3.861 3.923.006-2.17 1.731-3.923 3.862-3.923ZM129.321 0c0 3.612-2.787 6.535-6.224 6.535 3.437 0 6.224 2.93 6.224 6.541 0-3.612 2.787-6.54 6.218-6.54-3.431 0-6.218-2.924-6.218-6.536Z" fill="#0085FF"/></svg>