<svg width="196" height="60" fill="none" xmlns="http://www.w3.org/2000/svg"><g clip-path="url('#clip0_40_2183')"><path d="M79.412 31.108h4.345L78.49 15.744h-4.878l-5.257 15.364h3.954l1.01-3.375h5.117l.977 3.375Zm-3.617-11.903H76l1.684 5.717h-3.607l1.717-5.717ZM86.156 31.107h3.835V14.818h-3.835v16.29ZM94.065 16.543v2.874h-1.857v2.8h1.857v5.643c0 2.321 1.25 3.269 4.432 3.269.728 0 1.434-.064 1.836-.15v-2.682a7.55 7.55 0 0 1-.966.053c-1 0-1.467-.437-1.467-1.331v-4.802h2.433v-2.8H97.9v-2.874h-3.835ZM108.263 21.653c1.282 0 2.085.82 2.15 2.204h-4.388c.098-1.341.977-2.204 2.238-2.204Zm2.291 5.962c-.26.692-1.032 1.097-2.15 1.097-1.466 0-2.369-.958-2.401-2.502v-.192h8.136v-1.043c0-3.78-2.172-5.994-5.898-5.994-3.748 0-6.018 2.374-6.018 6.281 0 3.886 2.216 6.122 6.072 6.122 3.128 0 5.345-1.458 5.768-3.769h-3.509ZM116.529 31.107h3.835v-6.27c0-1.65 1.13-2.587 2.824-2.587.587 0 1.358.095 1.651.212v-3.204c-.282-.117-.879-.181-1.39-.181-1.51 0-2.683.937-2.976 2.13h-.207v-1.95h-3.737v11.85ZM126.913 31.107h3.835v-6.77c0-1.364.749-2.28 1.998-2.28 1.304 0 1.901.8 1.901 2.237v6.813h3.846v-7.654c0-2.843-1.401-4.472-4.096-4.472-1.748 0-3.009.862-3.541 2.204h-.206v-1.927h-3.737v11.85ZM146.076 28.659c-.967 0-1.608-.469-1.608-1.225 0-.713.598-1.15 1.739-1.235l2.031-.127v.777c0 1.022-.945 1.81-2.162 1.81Zm-1.401 2.63c1.532 0 2.857-.64 3.4-1.65h.206v1.469h3.737v-8.081c0-2.555-1.901-4.046-5.236-4.046-3.269 0-5.409 1.427-5.583 3.726h3.454c.25-.628.902-.958 1.912-.958 1.065 0 1.673.48 1.673 1.278v.926l-2.64.149c-3.118.181-4.834 1.437-4.834 3.599 0 2.171 1.586 3.587 3.911 3.587ZM155.896 16.543v2.874h-1.858v2.8h1.858v5.643c0 2.321 1.249 3.269 4.432 3.269.728 0 1.434-.064 1.835-.15v-2.682a7.53 7.53 0 0 1-.966.053c-.999 0-1.466-.437-1.466-1.331v-4.802h2.432v-2.8h-2.432v-2.874h-3.835ZM164.695 31.107h3.845v-11.85h-3.845v11.85Zm1.923-13.435c1.118 0 2.042-.863 2.042-1.96 0-1.096-.924-1.97-2.042-1.97-1.119 0-2.042.874-2.042 1.97 0 1.097.923 1.96 2.042 1.96ZM183.052 19.258h-4.041l-2.053 8.474h-.206l-2.096-8.474h-4.139l4.073 11.85h4.432l4.03-11.85ZM189.93 21.653c1.282 0 2.086.82 2.151 2.204h-4.388c.097-1.341.977-2.204 2.237-2.204Zm2.292 5.962c-.261.692-1.032 1.097-2.151 1.097-1.466 0-2.367-.958-2.401-2.502v-.192h8.137v-1.043c0-3.78-2.173-5.994-5.899-5.994-3.747 0-6.017 2.374-6.017 6.281 0 3.886 2.215 6.122 6.072 6.122 3.128 0 5.344-1.458 5.768-3.769h-3.509ZM117.505 45.83c1.749 0 3.036-1.012 3.253-2.529h-1.211c-.217.868-1.004 1.416-2.042 1.416-1.412 0-2.292-1.123-2.292-2.912 0-1.794.88-2.917 2.287-2.917 1.032 0 1.819.607 2.047 1.55h1.211c-.195-1.566-1.531-2.662-3.258-2.662-2.178 0-3.531 1.538-3.531 4.03 0 2.485 1.358 4.024 3.536 4.024ZM128.258 37.776c-2.248 0-3.66 1.543-3.66 4.024 0 2.475 1.379 4.03 3.66 4.03 2.265 0 3.656-1.56 3.656-4.03 0-2.475-1.401-4.024-3.656-4.024Zm0 1.112c1.484 0 2.412 1.129 2.412 2.912 0 1.773-.923 2.917-2.412 2.917-1.509 0-2.416-1.144-2.416-2.917 0-1.783.934-2.912 2.416-2.912ZM144.054 45.644v-7.682h-1.423l-2.499 5.877h-.092l-2.493-5.877h-1.423v7.681h1.13v-5.546h.076l2.297 5.365h.924l2.297-5.365h.076v5.547h1.13ZM156.509 45.643v-7.681h-1.423l-2.499 5.877h-.092l-2.493-5.877h-1.423v7.681h1.13v-5.547h.076l2.297 5.366h.924l2.297-5.366h.076v5.547h1.13ZM166.01 44.558h-3.759v-2.305h3.557V41.22h-3.557v-2.172h3.759v-1.086h-4.976v7.681h4.976v-1.085ZM171.543 39.01h1.716c.94 0 1.516.507 1.516 1.342 0 .857-.544 1.347-1.483 1.347h-1.749V39.01Zm0 3.706h1.716l1.597 2.928h1.407l-1.76-3.125c.956-.32 1.521-1.16 1.521-2.193 0-1.443-1.016-2.364-2.596-2.364h-3.101v7.681h1.216v-2.927ZM183.53 45.83c1.749 0 3.037-1.012 3.253-2.529h-1.211c-.217.868-1.004 1.416-2.042 1.416-1.412 0-2.292-1.123-2.292-2.912 0-1.794.88-2.917 2.287-2.917 1.032 0 1.819.607 2.047 1.55h1.211c-.195-1.566-1.531-2.662-3.258-2.662-2.178 0-3.53 1.538-3.53 4.03 0 2.485 1.357 4.024 3.535 4.024ZM195.919 44.558h-3.758v-2.305h3.557V41.22h-3.557v-2.172h3.758v-1.086h-4.975v7.681h4.975v-1.085ZM16.026 26.724.182 40.818l6.423 2.045 9.42-16.139ZM37.212 52.609l18.45 5.874-1.25-5.874h-17.2ZM47.973 22.338l-4.299-20.21-4.935 4.39 9.234 15.82Z" fill="#fff"/><path fill-rule="evenodd" clip-rule="evenodd" d="M33.279.824 4.112 50.792h58.334L33.279.824Zm0 18.295L20.094 41.707h26.37L33.279 19.119Z" fill="#019AD2"/></g><defs><clipPath id="clip0_40_2183"><path fill="#fff" transform="translate(.182 .824)" d="M0 0h195.818v59.014H0z"/></clipPath></defs></svg>