<svg width="22" height="19" fill="none" xmlns="http://www.w3.org/2000/svg"><path d="M21.333.578a.4.4 0 0 0-.448.004 9.661 9.661 0 0 1-2.246 1.158l-.28.1-.222-.197a4.507 4.507 0 0 0-2.706-1.13 4.521 4.521 0 0 0-3.273 1.08 4.396 4.396 0 0 0-1.546 3.358l.002.548-.546-.048c-3.872-.34-6.3-2.76-7.954-4.796m19.22-.077L2.113.655m19.22-.077c.133.09.192.248.155.396a7.324 7.324 0 0 1-1.718 3.196l-.15.164.02.222c.013.135.02.27.02.404 0 2.482-.552 4.704-1.63 6.619-1 1.778-2.462 3.26-4.228 4.283-1.848 1.071-4.007 1.64-6.248 1.64h-.053c-2.313-.01-4.667-.63-6.805-1.8a.37.37 0 0 1-.183-.426M21.334.578.513 15.276M2.114.655a.395.395 0 0 0-.364-.14.386.386 0 0 0-.304.234c-.03.075-.95 2.376-.715 5.149.194 2.295 1.223 5.288 4.9 7.295l.884.483-.92.412c-1.462.656-3.08.975-4.69.912M2.114.655.904 15m0 0a.387.387 0 0 0-.39.276M.904 15l-.39.276m18.41-11.33a.367.367 0 0 0-.107.333l-.49.095.597-.429Zm0-.001a6.64 6.64 0 0 0 .685-.778L20.635 1.8l-1.6.598c-.23.086-.46.163-.696.233a.397.397 0 0 1-.41-.115 3.726 3.726 0 0 0-2.552-1.254l3.547 2.683ZM7.47 13.216c-1.787-.704-3.202-1.669-4.21-2.902C2.247 9.078 1.665 7.597 1.51 5.897c-.114-1.263.033-2.432.214-3.301l.195-.939.658.698c.697.739 1.557 1.527 2.576 2.183C6.91 5.67 8.874 6.242 11 6.242a.382.382 0 0 0 .389-.375v-.911l-3.919 8.26Zm0 0a.377.377 0 0 1 .24.309l-.24-.309Z" fill="#fff" stroke="#fff"/></svg>